# xmcd
#
# Track frame offsets: 
#        150
#        13728
#        27920
#        40955
#        53661
#        66970
#        81507
#        93673
#        105853
#        116921
#        129440
#        141077
#        153809
#        166708
#        180152
#        194102
#        209463
#        223013
#        235965
#        249896
#        262836
#        277836
#        289101
#        301885
#
# Disc length: 4188 seconds
#
# Revision: 0
# Processed by: cddbd v1.5.1PL0 Copyright (c) Steve Scherf et al.
# Submitted via: ExactAudioCopy v0.95a5
#
DISCID=4b105a18
DTITLE=Various Artist - Black Vocal Groups Volume 2: Paramount Jubilee Singer
DTITLE=s and Taskiana Four (1923-1928)
DYEAR=1900
DGENRE=
TTITLE0=Paramount Jubilee Singers - When All the Saints Come Marching 
TTITLE0=In [take 1]
TTITLE1=Paramount Jubilee Singers - When All the Saints Come Marching 
TTITLE1=In [take 2]
TTITLE2=Paramount Jubilee Singers - Steal Away to Jesus
TTITLE3=Paramount Jubilee Singers - My Soul Is a Witness for My Lord
TTITLE4=Paramount Jubilee Singers - That Old Time Religion
TTITLE5=Paramount Jubilee Singers - I Couldn't Hear Nobody Pray
TTITLE6=Taskiana Four - Creep Along Moses
TTITLE7=Taskiana Four - Join That Band
TTITLE8=Taskiana Four - Stop Dat Band
TTITLE9=Taskiana Four - Then He Brought Joy to My Soul
TTITLE10=Taskiana Four - I Shall Not Be Moved
TTITLE11=Taskiana Four - Lead Kindly Light
TTITLE12=Taskiana Four - Toot, Toot, Dixie
TTITLE13=Taskiana Four - Dixie Bo-Bo
TTITLE14=Taskiana Four - Crying Holy Unto the Lord
TTITLE15=Taskiana Four - Oh My Mother, You Got to Bow So Low
TTITLE16=Taskiana Four - I'm in His Care
TTITLE17=Taskiana Four - I'm a Pilgrim
TTITLE18=Taskiana Four - Hallelujah Side
TTITLE19=Taskiana Four - Mary Bowed So Low
TTITLE20=Taskiana Four - Brightly Beams
TTITLE21=Taskiana Four - Hide You in the Blood
TTITLE22=Southern Jubilee Singers - Couldn't Hear Nobody Praying
TTITLE23=Southern Jubilee Singers - Listen to the Lambs
EXTD=
EXTT0=
EXTT1=
EXTT2=
EXTT3=
EXTT4=
EXTT5=
EXTT6=
EXTT7=
EXTT8=
EXTT9=
EXTT10=
EXTT11=
EXTT12=
EXTT13=
EXTT14=
EXTT15=
EXTT16=
EXTT17=
EXTT18=
EXTT19=
EXTT20=
EXTT21=
EXTT22=
EXTT23=
PLAYORDER=
